<svg width="28" height="12" viewBox="0 0 28 12" fill="none" xmlns="http://www.w3.org/2000/svg">
<path d="M14.5987 0.939212C14.3454 1.02857 14.2777 1.12137 14.2756 1.30057V11.0603C14.2809 11.2483 14.4377 11.4051 14.6382 11.4236C14.6467 11.4241 23.8888 11.4285 23.9485 11.4285C24.8392 11.4282 25.6934 11.1041 26.3233 10.5275C26.9531 9.95083 27.3071 9.1688 27.3074 8.35328C27.3072 7.84651 27.1703 7.34763 26.9087 6.90099C26.6472 6.45434 26.2692 6.07376 25.8083 5.79309C25.3474 5.51241 24.8179 5.34033 24.2669 5.29214C23.7159 5.24395 23.1604 5.32114 22.6498 5.51685C22.3831 2.74585 19.8446 0.571541 16.7481 0.571541C15.9907 0.571541 15.252 0.708274 14.5998 0.939719M13.2201 1.63063L13.0681 8.55788L13.2201 11.0725C13.2255 11.2561 13.3886 11.4075 13.5902 11.4075C13.6878 11.4066 13.7811 11.3708 13.8501 11.3077C13.9192 11.2447 13.9586 11.1594 13.9598 11.0701V11.0725L14.1251 8.55788L13.9598 1.63015C13.9545 1.4446 13.7913 1.29323 13.5902 1.29323C13.4924 1.294 13.3988 1.32988 13.3296 1.39316C13.2604 1.45644 13.2211 1.54206 13.2201 1.63161M12.0964 2.20679L11.9662 8.55591C11.9662 8.56079 12.0964 11.1087 12.0964 11.1087C12.0986 11.1919 12.1359 11.2712 12.2005 11.3298C12.2652 11.3884 12.3521 11.4219 12.4431 11.4231C12.5343 11.4219 12.6214 11.3882 12.6861 11.3293C12.7508 11.2703 12.7879 11.1907 12.7897 11.1072L12.9358 8.55835L12.7897 2.20581C12.7878 2.12237 12.7506 2.04288 12.686 1.98405C12.6213 1.92522 12.5342 1.89163 12.4431 1.89038C12.2553 1.89038 12.1001 2.03736 12.0964 2.20679ZM8.73646 2.87183L8.56472 8.55543L8.73698 11.1653C8.74232 11.3049 8.86229 11.4153 9.01322 11.4153C9.16415 11.4153 9.28522 11.3045 9.29056 11.1643V11.1629L9.48417 8.55543L9.29056 2.87183C9.28522 2.72535 9.16415 2.61988 9.01322 2.61988C8.94013 2.62001 8.87007 2.64655 8.81823 2.69373C8.7664 2.74092 8.73703 2.80492 8.73646 2.87183ZM9.84732 3.01736L9.68951 8.55642L9.84791 11.1409C9.85324 11.2922 9.98336 11.4134 10.1482 11.4134C10.313 11.4134 10.4431 11.2928 10.4479 11.1399V11.1414L10.6255 8.55642L10.4479 3.01736C10.4426 2.86404 10.3119 2.74392 10.1482 2.74392C9.98443 2.74392 9.85105 2.86453 9.84732 3.01736ZM7.63407 3.0564L7.44735 8.55543L7.63407 11.1809C7.63559 11.2417 7.66284 11.2996 7.71011 11.3423C7.75738 11.3851 7.82096 11.4093 7.88739 11.4099C7.95399 11.4093 8.01769 11.3849 8.06499 11.342C8.11229 11.299 8.13946 11.2409 8.1407 11.1799L8.35034 8.55543L8.1407 3.05592C8.13537 2.92702 8.02339 2.82644 7.88739 2.82644C7.82069 2.82707 7.7569 2.8515 7.70959 2.89454C7.66227 2.93759 7.63518 2.99584 7.63407 3.05691M10.9674 3.21998L10.8233 8.55689L10.9674 11.1253C10.9727 11.2888 11.1135 11.4182 11.291 11.4182C11.4686 11.4182 11.61 11.2893 11.6137 11.1238V11.1257L11.7759 8.5574L11.6137 3.22046C11.6129 3.1424 11.5786 3.06778 11.5183 3.01262C11.4579 2.95746 11.3763 2.92617 11.291 2.92554C11.1135 2.92554 10.9711 3.05494 10.9674 3.21998ZM6.54073 3.47926C6.54073 3.47975 6.34125 8.55445 6.34125 8.55445L6.54073 11.2073C6.54606 11.3235 6.6474 11.4153 6.77113 11.4153C6.83144 11.4143 6.88903 11.3921 6.93193 11.3533C6.97483 11.3145 6.99975 11.262 7.00153 11.2068L7.22711 8.55445L7.00153 3.47926C6.99975 3.42406 6.97483 3.37161 6.93193 3.33279C6.88903 3.29396 6.83144 3.27175 6.77113 3.27077C6.6474 3.27077 6.54713 3.36257 6.54073 3.47926ZM5.45598 4.42361L5.24263 8.55445L5.45598 11.2234C5.46131 11.3279 5.55196 11.4099 5.66235 11.4099C5.77275 11.4099 5.86285 11.3279 5.86925 11.2229L6.11085 8.55347L5.86925 4.42263C5.86232 4.31813 5.77169 4.23511 5.66235 4.23511C5.55302 4.23511 5.46131 4.31813 5.45598 4.42263M3.31304 5.81568L3.07196 8.55251L3.31304 11.2C3.31997 11.282 3.3888 11.3435 3.47306 11.3435C3.55733 11.3435 3.62555 11.282 3.63302 11.2L3.90613 8.55251L3.63302 5.81472C3.62502 5.73318 3.55679 5.67116 3.47306 5.67116C3.38933 5.67116 3.31944 5.73365 3.31304 5.81568ZM2.25492 5.88795C2.25492 5.88844 1.99997 8.55201 1.99997 8.55201L2.25492 11.1184C2.26292 11.1902 2.31996 11.2415 2.39196 11.2415C2.46396 11.2415 2.52001 11.1902 2.52854 11.1194L2.81812 8.55251L2.52907 5.88845C2.52053 5.81765 2.46289 5.76638 2.39196 5.76638C2.32103 5.76638 2.26238 5.81863 2.25492 5.88845M4.38021 6.01443L4.15359 8.55347L4.38021 11.2229C4.38158 11.2669 4.40144 11.3087 4.43561 11.3396C4.46979 11.3705 4.51563 11.3882 4.56367 11.3889C4.66074 11.3889 4.73967 11.3176 4.74713 11.2229L5.00527 8.55299L4.74713 6.01297C4.73913 5.92019 4.6618 5.84888 4.56367 5.84888C4.46554 5.84888 4.38661 5.91921 4.38021 6.01443ZM1.20532 6.30786C1.20532 6.30835 0.936575 8.55251 0.936575 8.55251L1.20532 10.7483C1.21332 10.8069 1.26131 10.8494 1.31945 10.8494C1.37758 10.8494 1.42347 10.8084 1.43253 10.7488L1.73761 8.55251L1.43253 6.30786C1.42186 6.24829 1.37599 6.2068 1.31893 6.2068C1.26186 6.2068 1.21279 6.24927 1.20532 6.30786ZM0.199476 7.16432L0 8.55251L0.199476 9.91725C0.207476 9.97487 0.252838 10.0149 0.309371 10.0149C0.365903 10.0149 0.409625 9.97487 0.418158 9.91725L0.654939 8.55201L0.418158 7.16334C0.410158 7.10621 0.364836 7.06568 0.309371 7.06568C0.253905 7.06568 0.206943 7.10572 0.199476 7.16334" fill="url(#paint0_linear_317_356)"/>
<defs>
<linearGradient id="paint0_linear_317_356" x1="43.9903" y1="-7.65257" x2="43.9903" y2="14.8225" gradientUnits="userSpaceOnUse">
<stop stop-color="#44F308"/>
<stop offset="1" stop-color="#44F308"/>
</linearGradient>
</defs>
</svg>
