<svg width="17" height="17" viewBox="0 0 17 17" fill="none" xmlns="http://www.w3.org/2000/svg">
<path d="M16.5 8.5C16.5 12.9183 12.9183 16.5 8.5 16.5C4.08172 16.5 0.5 12.9183 0.5 8.5C0.5 4.08172 4.08172 0.5 8.5 0.5C12.9183 0.5 16.5 4.08172 16.5 8.5Z" stroke="#44F308"/>
<path d="M3.53639 8.42626L9.26038 6.06788C9.82541 5.82222 11.7416 5.03609 11.7416 5.03609C11.7416 5.03609 12.626 4.69216 12.5523 5.52742C12.5277 5.87135 12.3312 7.07511 12.1347 8.37713L11.5205 12.2341C11.5205 12.2341 11.4714 12.7991 11.0537 12.8974C10.6361 12.9956 9.94824 12.5534 9.82541 12.4552C9.72714 12.3815 7.98292 11.276 7.3442 10.7355C7.17223 10.5881 6.9757 10.2933 7.36876 9.94938C8.25316 9.13869 9.30951 8.13146 9.94824 7.49274C10.243 7.19794 10.5378 6.51008 9.30951 7.34534L5.84564 9.67915C5.84564 9.67915 5.45258 9.92482 4.71558 9.70372C3.97859 9.48262 3.11876 9.18782 3.11876 9.18782C3.11876 9.18782 2.52917 8.81933 3.53639 8.42626Z" fill="#44F308"/>
</svg>
